<?xml version="1.0" encoding="UTF-8"?>
<svg version="1.1" xmlns="http://www.w3.org/2000/svg" width="11217" height="6676">
<path d="M0 0 C7.21607417 0 14.15349745 0.13404899 21.30268574 0.76499939 C22.28447855 0.84784107 23.26627136 0.93068275 24.27781546 1.01603478 C27.55794327 1.29394868 30.8374602 1.57850066 34.11701965 1.86303711 C36.50554051 2.0668061 38.89409641 2.27016464 41.28268397 2.47315031 C46.48633017 2.91631371 51.68971927 3.36237855 56.89289749 3.81099904 C64.68124658 4.48249507 72.47005333 5.14856447 80.25895772 5.81358445 C93.52287351 6.94621974 106.78640798 8.08326427 120.04973984 9.22271538 C133.44931489 10.37385244 146.8490621 11.52295486 160.24902725 12.66954231 C161.51609859 12.77796284 161.51609859 12.77796284 162.80876734 12.88857368 C167.11492585 13.25703242 171.42108726 13.6254572 175.72724974 13.99386957 C206.90018631 16.66092664 238.0727365 19.33247683 269.24508667 22.00637817 C300.43575381 24.68183459 331.6265943 27.35525692 362.81765747 30.02609253 C363.79406407 30.10970129 364.77047068 30.19331004 365.77646536 30.2794524 C375.68647516 31.1280348 385.59648841 31.97657694 395.50650406 32.8250911 C416.55552873 34.6273493 437.60452949 36.4298867 458.65351868 38.2325592 C459.65247876 38.31811151 460.65143884 38.40366382 461.68067044 38.49180862 C507.70449905 42.43337038 553.72807395 46.37789119 599.75162171 50.32273076 C661.63269435 55.62677334 723.51390562 60.92918963 785.39550781 66.22705078 C786.6533159 66.33473557 786.6533159 66.33473557 787.93653425 66.44459581 C808.78304864 68.22932552 829.62957656 70.01389727 850.47611118 71.79839066 C879.2673982 74.26296646 908.05867096 76.72770879 936.84994389 79.19244911 C941.76221227 79.61297442 946.67448089 80.03349699 951.58674968 80.45401744 C1002.20846946 84.78754963 1052.83009953 89.12212858 1103.45166016 93.45751953 C1105.14616882 93.60264242 1106.84067748 93.7477653 1108.53518614 93.89288819 C1126.44137732 95.42643011 1144.34756655 96.95999485 1162.25375508 98.49356775 C1251.10584309 106.10329088 1339.95796516 113.71261577 1540.296875 130.86328125 C1541.27742875 130.94722034 1542.2579825 131.03115944 1543.26825001 131.11764214 C1596.42631438 135.66817174 1649.58439074 140.21856142 1702.74247156 144.76889895 C1704.77044923 144.94249406 1706.7984269 145.11608918 1708.82640457 145.2896843 C1709.83064635 145.3756475 1710.83488813 145.46161071 1711.86956148 145.55017886 C1734.22224458 147.46357131 1756.57492597 149.37698376 1778.92760705 151.29039969 C1784.01898528 151.72622766 1789.11036352 152.16205547 1794.20174176 152.59788328 C1795.21039901 152.6842255 1796.21905626 152.77056772 1797.25827889 152.85952637 C1799.29650192 153.03400059 1801.33472496 153.20847482 1803.37294799 153.38294904 C1805.41185015 153.5574814 1807.4507523 153.73201376 1809.48965446 153.90654613 C1832.98326072 155.91762579 1856.47686734 157.92870135 1879.97047424 159.93977356 C1880.98342891 160.02648332 1881.99638358 160.11319308 1883.04003385 160.20253041 C1913.81116009 162.83656412 1944.58228754 165.47058362 1975.35341582 168.1045934 C2075.93914177 176.71473561 2176.52485711 185.32500184 2316.2008065 197.28171957 C2321.21169074 197.71066808 2326.22257499 198.13961648 2331.23345923 198.56856489 C2367.29115272 201.65522387 2403.34884599 204.74188541 2439.40653896 207.82855034 C2494.54903281 212.54894103 2549.69152773 217.26931925 2604.83402356 221.98968684 C2607.84639937 222.2475555 2610.85877518 222.50542416 2613.87115099 222.76329282 C2631.94664671 224.31061101 2650.02214244 225.85792904 2668.09763819 227.40524685 C2696.21152062 229.81188134 2724.32540298 232.21851664 2752.43928528 234.62515259 C2753.43312611 234.71022846 2754.42696694 234.79530433 2755.45092416 234.88295826 C2764.48575646 235.65636806 2773.52058875 236.42977787 2782.55542105 237.2031877 C2796.60982684 238.40628867 2810.66423263 239.60938958 2824.71863842 240.81249046 C2825.71250893 240.89756887 2826.70637945 240.98264728 2827.73036725 241.07030382 C2832.74992274 241.4999934 2837.76947824 241.92968297 2842.78903373 242.35937254 C2851.82420017 243.13281091 2860.85936661 243.90624928 2869.89453305 244.67968765 C2874.9140637 245.1093751 2879.93359435 245.53906255 2884.953125 245.96875 C2886.9609375 246.140625 2888.96875 246.3125 2890.9765625 246.484375 C2891.97042969 246.56945312 2892.96429687 246.65453125 2893.98828125 246.7421875 C2900.01171874 247.2578125 2900.01171874 247.2578125 2906.03515624 247.7734375 C2908.04296878 247.9453125 2910.05078133 248.11718751 2912.05859387 248.28906251 C2917.07812442 248.71874995 2922.09765497 249.14843739 2927.11718552 249.57812483 C2936.15235014 250.35156305 2945.18751475 251.12500127 2954.22267937 251.89843946 C2959.24222167 252.32812789 2964.26176397 252.75781633 2969.28130627 253.18750477 C2970.2751752 253.27258304 2971.26904414 253.35766131 2972.29303032 253.44531772 C2986.34755083 254.64842841 3000.40207132 255.85153928 3014.4565918 257.05465026 C3023.49159444 257.82807478 3032.52659709 258.60149925 3041.56159973 259.37492371 C3043.05237883 259.50253906 3043.05237883 259.50253906 3044.57327469 259.63273249 C3072.68512325 262.03919457 3100.79697204 264.44565411 3128.90882101 266.85211142 C3146.98166759 268.3992005 3165.0545141 269.94629039 3183.12736058 271.49338066 C3186.13942122 271.75122215 3189.15148186 272.00906362 3192.16354249 272.26690508 C3247.34029826 276.99020183 3302.51705077 281.71353654 3357.69380011 286.43690838 C3393.79324267 289.52717901 3429.89268628 292.61743742 3465.99213052 295.7076885 C3471.00721218 296.13699875 3476.02229384 296.56630911 3481.03737548 296.99561974 C3575.80010956 305.10768093 3670.56286449 313.21949842 3765.32568359 321.33056641 C3766.83338012 321.45961524 3766.83338012 321.45961524 3768.37153516 321.59127112 C3786.64967396 323.15575858 3804.92781305 324.72024264 3823.20595229 326.28472499 C3923.04033358 334.82985829 4022.8747053 343.37510342 4770.22248936 407.3660841 C4772.25603719 407.54027462 4774.28958502 407.71446513 4776.32313285 407.88865564 C4778.3521913 408.06246165 4780.38124974 408.23626767 4782.41030818 408.4100737 C4783.41302076 408.4959645 4784.41573333 408.58185531 4785.44883113 408.67034886 C4790.49414115 409.10252237 4795.53945112 409.53469652 4800.58476099 409.96687181 C4830.42613929 412.52304523 4860.26755004 415.07883953 4890.10897827 417.63442993 C4923.56908054 420.49992047 4957.02913944 423.36591677 4990.4891386 426.23261106 C4993.96315304 426.53024629 4997.43716766 426.82787949 5000.9111824 427.12551117 C5001.76353651 427.19853574 5002.61589061 427.27156032 5003.49407363 427.34679776 C5017.00256999 428.50411235 5030.5111065 429.66095768 5044.01965938 430.81761243 C5057.28765489 431.9536805 5070.55560659 433.09025897 5083.82351146 434.22738517 C5091.5969021 434.89358889 5099.37032577 435.55940423 5107.14379875 436.22464651 C5112.90267023 436.71752596 5118.66147815 437.21114475 5124.42026116 437.70505682 C5126.7392378 437.90383184 5129.05823505 438.10236655 5131.37725495 438.30063626 C5134.5194258 438.56931801 5137.66152036 438.8388754 5140.80359745 439.10865116 C5142.14706204 439.22321033 5142.14706204 439.22321033 5143.51766733 439.34008383 C5149.35201119 439.84225471 5155.17185853 440.41718585 5161 441 C5161 588.18 5161 735.36 5161 887 C4331.38 887 3501.76 887 2647 887 C2647.495 887.99 2647.495 887.99 2648 889 C2648.19355642 890.34415421 2648.33746857 891.69564519 2648.45500559 893.04856783 C2648.53126311 893.90325913 2648.60752064 894.75795043 2648.68608899 895.63854147 C2648.76635282 896.58549942 2648.84661664 897.53245736 2648.92931271 898.508111 C2649.0177743 899.51336845 2649.10623589 900.51862589 2649.19737814 901.55434569 C2649.49673755 904.96787218 2649.79018407 908.38188227 2650.08372498 911.7959137 C2650.29855539 914.25962824 2650.51374617 916.72331138 2650.72926742 919.18696558 C2651.20043003 924.58250413 2651.66901487 929.9782573 2652.1354003 935.37421072 C2652.83343777 943.45010669 2653.53619704 951.52558694 2654.23991713 959.60098948 C2655.43758125 973.34609526 2656.63138365 987.091534 2657.82312584 1000.83715439 C2659.02754755 1014.72878686 2660.23378068 1028.62026026 2661.44227028 1042.51153946 C2661.51831105 1043.38561707 2661.59435182 1044.25969469 2661.67269686 1045.1602595 C2662.06028835 1049.61545112 2662.44791265 1054.07063989 2662.8355507 1058.52582747 C2665.55718232 1089.80652229 2668.2753873 1121.08751401 2670.99151529 1152.36868716 C2673.87941427 1185.62810474 2676.76911196 1218.88736523 2679.66149902 1252.14639282 C2679.74921695 1253.15504768 2679.83693488 1254.16370253 2679.92731092 1255.20292268 C2681.08571433 1268.52312432 2682.24423323 1281.84331592 2683.40278617 1295.16350456 C2684.7529278 1310.68646808 2686.10297966 1326.20943942 2687.45304478 1341.7324096 C2687.9057739 1346.93786089 2688.35850604 1352.14331192 2688.81124495 1357.34876236 C2691.37876017 1386.86928626 2693.94564081 1416.38986529 2696.51205806 1445.91048466 C2704.79357707 1541.16974479 2713.08180067 1636.42841497 2724.48638266 1767.19695371 C2724.70720551 1769.7285603 2724.92802647 1772.26016705 2725.14884716 1774.79177383 C2728.65942014 1815.03874109 2732.17081728 1855.28563642 2735.68260445 1895.53249776 C2739.00426126 1933.60039197 2742.32515773 1971.66835249 2745.64592318 2009.73632447 C2745.94505088 2013.16540686 2746.24417943 2016.59448918 2746.54330799 2020.0235715 C2747.82079635 2034.66815427 2749.09828141 2049.31273733 2750.37575543 2063.95732135 C2751.88856732 2081.29973831 2753.40140096 2098.64215338 2754.91428757 2115.98456383 C2762.91204507 2207.66390135 2770.90822779 2299.34337606 2799.60491443 2628.4727894 C2800.83609431 2642.59440783 2802.06728329 2656.71602546 2803.29847717 2670.83764267 C2811.83155453 2768.71083814 2820.36442114 2866.58405199 2848.08203125 3184.5546875 C2848.15210165 3185.35859577 2848.22217205 3186.16250405 2848.29436579 3186.99077318 C2853.59689617 3247.82600144 2858.89929449 3308.66124121 2864.20161748 3369.49648755 C2867.76978056 3410.43516253 2871.33797756 3451.37383455 2874.90625 3492.3125 C2874.97624425 3493.1155419 2875.0462385 3493.91858381 2875.11835379 3494.74596032 C2882.71916396 3581.94980758 2890.32083257 3669.15357998 2905.15625 3839.3125 C2905.32988564 3841.30402152 2905.50352129 3843.29554303 2905.67715693 3845.28706455 C2911.11803013 3907.69138286 2916.55900744 3970.0956921 2922 4032.5 C2927.52781165 4095.90006098 2933.05560535 4159.30012353 2938.58329457 4222.70019519 C2938.75695946 4224.69205217 2938.93062439 4226.68390914 2939.10428935 4228.67576611 C2947.10092072 4320.39343835 2955.09723944 4412.11113783 2968.88151075 4570.25248842 C2969.09384268 4572.68856328 2969.30617477 4575.12463812 2969.51850688 4577.56071296 C2974.39551677 4633.51439673 2979.27237708 4689.46809354 2984.14918518 4745.42179489 C2987.96137254 4789.16064552 2991.77359544 4832.89949305 2995.58592223 4876.63833152 C2995.79676771 4879.05736281 2996.00761301 4881.47639411 2996.21845829 4883.89542541 C3004.04829824 4973.72726267 3011.87929782 5063.55899879 3026.30878645 5229.05707622 C3027.23299311 5239.6570432 3028.15719435 5250.25701066 3029.08139533 5260.85697814 C3035.60437171 5335.67114947 3042.12735911 5410.48531984 3048.65085542 5485.29944584 C3050.00320118 5500.80870731 3051.35554113 5516.31796928 3052.70787877 5531.82723146 C3052.95889895 5534.70605159 3053.20991942 5537.58487169 3053.46093988 5540.4636918 C3057.2037803 5583.38836666 3060.94640181 5626.31306059 3064.68823242 5669.23782349 C3064.76663695 5670.13724654 3064.84504148 5671.03666959 3064.9258219 5671.96334788 C3066.41969244 5689.10039425 3067.91354156 5706.23744248 3069.40732193 5723.3744967 C3070.34289815 5734.10767811 3071.27849163 5744.84085802 3072.21411133 5755.57403564 C3072.29134658 5756.46005872 3072.36858183 5757.3460818 3072.44815755 5758.25895406 C3075.12362588 5788.95109704 3077.80028507 5819.64313607 3080.47738871 5850.33513645 C3083.14516453 5880.92024571 3085.81214052 5911.50542462 3088.47818875 5942.09068452 C3088.86330097 5946.50873429 3089.2484235 5950.92678316 3089.63355255 5955.34483147 C3089.70917633 5956.21236039 3089.7848001 5957.07988932 3089.86271551 5957.97370701 C3091.0654868 5971.77117569 3092.26914145 5985.56856718 3093.47315772 5999.36592727 C3094.6606803 6012.97447923 3095.84728573 6026.58311089 3097.03291428 6040.191828 C3097.73320093 6048.2294261 3098.43421742 6056.26695979 3099.13626748 6064.30440406 C3099.65785515 6070.27672099 3100.17810563 6076.24915357 3100.69781521 6082.22163426 C3100.90865875 6084.64216903 3101.11994765 6087.06266506 3101.33171079 6089.48311955 C3101.61741603 6092.74944708 3101.90154863 6096.01590756 3102.18526077 6099.28240871 C3102.26899507 6100.23530873 3102.35272936 6101.18820874 3102.43900105 6102.16998451 C3102.51378596 6103.03482043 3102.58857088 6103.89965635 3102.665622 6104.79069942 C3102.76324173 6105.91010156 3102.76324173 6105.91010156 3102.86283357 6107.05211788 C3102.97873158 6108.69796994 3103 6110.35007232 3103 6112 C2805.67 6112 2508.34 6112 2202 6112 C2202 4387.75 2202 2663.5 2202 887 C1475.34 887 748.68 887 0 887 C0 594.29 0 301.58 0 0 Z " fill="#000000" transform="translate(6055,564)"/>
<path d="M0 0 C0 292.71 0 585.42 0 887 C-726.66 887 -1453.32 887 -2202 887 C-2202 2611.25 -2202 4335.5 -2202 6112 C-2499.33 6112 -2796.66 6112 -3103 6112 C-3097.25282385 6043.0338862 -3097.25282385 6043.0338862 -3095.29927063 6020.6844635 C-3095.06562858 6018.00128355 -3094.83207702 6015.31809586 -3094.59862989 6012.63489896 C-3094.10268698 6006.93661096 -3093.60595597 6001.23839217 -3093.10861826 5995.54022574 C-3092.36403518 5987.00923196 -3091.62082952 5978.47811851 -3090.87783617 5969.94698614 C-3089.61001842 5955.39019393 -3088.34115426 5940.83349311 -3087.07167244 5926.27684593 C-3085.79119437 5911.5940629 -3084.51122102 5896.91123599 -3083.23184013 5882.22835732 C-3083.15044992 5881.2942822 -3083.06905971 5880.36020708 -3082.98520312 5879.39782666 C-3082.57005288 5874.63332872 -3082.15491038 5869.8688301 -3081.7397704 5865.10433126 C-3078.74896356 5830.77949409 -3075.75704882 5796.45475356 -3072.76452637 5762.13006592 C-3069.77922039 5727.88812753 -3066.79439885 5693.64614697 -3063.81018066 5659.40411377 C-3063.6209838 5657.23320446 -3063.43178691 5655.06229516 -3063.24259 5652.89138585 C-3062.48211346 5644.16541148 -3061.72164021 5635.43943683 -3060.96117076 5626.71346185 C-3052.13149834 5525.39782424 -3043.29954802 5424.08238525 -3034.46687424 5322.76700926 C-3031.92555874 5293.61679185 -3029.38429587 5264.46656984 -3026.84308166 5235.3163436 C-3018.18039433 5135.94682341 -3009.51740657 5036.57732941 -2989.19950667 4803.54489207 C-2988.94087458 4800.57871843 -2988.68224261 4797.61254477 -2988.42361067 4794.64637111 C-2986.79531238 4775.97189835 -2985.16701065 4757.29742589 -2983.53870856 4738.62295346 C-2982.77341825 4729.84608498 -2982.00812833 4721.06921647 -2981.24283865 4712.29234794 C-2980.90404898 4708.40687497 -2980.56525917 4704.52140202 -2980.22646925 4700.63592908 C-2972.39827569 4610.85687463 -2964.57044417 4521.07778866 -2951.16580538 4367.29165149 C-2950.95309104 4364.8511729 -2950.7403765 4362.41069432 -2950.52766192 4359.97021574 C-2946.6711921 4315.72484808 -2942.81483598 4271.47947051 -2938.95850733 4227.23409055 C-2934.07439333 4171.19647536 -2929.19020744 4115.15886644 -2924.30588122 4059.12126976 C-2924.09378923 4056.68795004 -2923.88169741 4054.25463031 -2923.66960561 4051.82131058 C-2916.05447812 3964.45332256 -2908.43846028 3877.0854122 -2893.84375 3709.6875 C-2893.67011436 3707.69597848 -2893.49647871 3705.70445697 -2893.32284307 3703.71293545 C-2887.7936473 3640.2955978 -2882.26434354 3576.87826958 -2876.73502648 3513.46094251 C-2871.29553941 3451.07390068 -2865.8560721 3388.68685713 -2860.41670543 3326.29980481 C-2860.24304054 3324.30794783 -2860.06937561 3322.31609086 -2859.89571065 3320.32423389 C-2851.89904258 3228.60614072 -2843.90268793 3136.88802025 -2829.90625 2976.3125 C-2829.76478148 2974.68943818 -2829.62331295 2973.06637637 -2829.48184443 2971.44331455 C-2825.15447152 2921.795551 -2820.82722425 2872.14777651 -2816.5 2822.5 C-2812.10204328 2772.04068486 -2807.70406002 2721.58137204 -2803.30595082 2671.12207019 C-2803.16451154 2669.49934384 -2803.0230723 2667.87661748 -2802.8816331 2666.25389111 C-2795.28088317 2579.05078612 -2787.67928483 2491.84775513 -2773.10449036 2324.67807335 C-2772.84374876 2321.68748582 -2772.58300732 2318.69689829 -2772.32226592 2315.70631075 C-2765.74581732 2240.277389 -2759.16923174 2164.84847918 -2752.59257512 2089.41957557 C-2748.25978346 2039.72597792 -2743.92702591 1990.0323773 -2739.59434257 1940.33877021 C-2739.33596971 1937.37536942 -2739.07759666 1934.41196864 -2738.81922358 1931.44856787 C-2730.48306563 1835.83727337 -2722.14760215 1740.22591838 -2708.48510168 1583.47275282 C-2707.53119595 1572.52810436 -2706.57728307 1561.58345653 -2705.62336627 1550.63880904 C-2697.63823467 1459.0226037 -2697.63823467 1459.0226037 -2689.65381309 1367.40633649 C-2689.23840667 1362.63958209 -2688.82299732 1357.87282794 -2688.40758729 1353.10607386 C-2688.33950543 1352.32484656 -2688.27142357 1351.54361926 -2688.20127862 1350.73871841 C-2687.92752089 1347.59739704 -2687.65376313 1344.45607567 -2687.38000506 1341.31475433 C-2686.63683604 1332.78703097 -2685.89367322 1324.25930707 -2685.15052748 1315.73158169 C-2682.38526027 1283.99971776 -2679.61956844 1252.26789101 -2676.85206332 1220.53622218 C-2676.54440621 1217.00866 -2676.23676012 1213.48109685 -2675.92911458 1209.95353365 C-2675.86844033 1209.25782393 -2675.80776609 1208.56211422 -2675.74525322 1207.84532239 C-2675.44003965 1204.3456439 -2675.13482789 1200.84596525 -2674.82961799 1197.34628645 C-2674.76942986 1196.65614133 -2674.70924172 1195.96599622 -2674.6472297 1195.25493762 C-2674.52588739 1193.86356923 -2674.40454529 1192.47220083 -2674.28320337 1191.08083241 C-2673.98162073 1187.62274266 -2673.68003151 1184.16465349 -2673.37842876 1180.7065655 C-2670.33880741 1145.85510396 -2667.30356905 1111.00326583 -2664.27544796 1076.15080309 C-2664.02825023 1073.30567684 -2663.78104957 1070.46055084 -2663.5338459 1067.61542511 C-2663.47283971 1066.9132849 -2663.41183351 1066.21114469 -2663.34897865 1065.4877275 C-2662.44424836 1055.07516825 -2661.5387823 1044.66267321 -2660.63264275 1034.25023651 C-2660.57425858 1033.57933673 -2660.5158744 1032.90843695 -2660.45572102 1032.21720688 C-2659.8179422 1024.88855672 -2659.18001108 1017.55991984 -2658.54197299 1010.23129225 C-2657.32184631 996.21529733 -2656.10393622 982.19911345 -2654.88902989 968.18266505 C-2654.07926387 958.84247909 -2653.26691545 949.50252014 -2652.45243785 940.16274387 C-2651.98658679 934.81972948 -2651.52195964 929.47661581 -2651.06053877 924.13321686 C-2650.6406356 919.27078068 -2650.21742399 914.40864471 -2649.79147784 909.54673427 C-2649.63805977 907.78862682 -2649.48589752 906.03040926 -2649.33508177 904.27207667 C-2649.1313565 901.89891368 -2648.92318274 899.52618295 -2648.71382713 897.15351105 C-2648.65572229 896.46396804 -2648.59761744 895.77442503 -2648.53775184 895.06398678 C-2648.27991489 892.19009344 -2647.91749054 889.75247161 -2647 887 C-3476.62 887 -4306.24 887 -5161 887 C-5161 739.82 -5161 592.64 -5161 441 C-5055.57173626 431.73158121 -5055.57173626 431.73158121 -5014.8379643 428.25567305 C-5007.22088668 427.60543446 -4999.60392127 426.95388949 -4991.98697307 426.30213718 C-4978.9439839 425.18613348 -4965.90091242 424.07109485 -4952.85778999 422.95664978 C-4939.6899313 421.83154035 -4926.52211748 420.70590756 -4913.35435295 419.57969666 C-4912.50894789 419.50739111 -4911.66354282 419.43508556 -4910.79251942 419.36058894 C-4906.47587907 418.99139377 -4902.15923949 418.62218954 -4897.84260025 418.25298132 C-4888.99542427 417.49627312 -4880.14824252 416.73963233 -4871.30105877 415.98301506 C-4870.41041768 415.90684681 -4869.51977659 415.83067856 -4868.60214638 415.75220218 C-4848.20989565 414.00826039 -4827.81758636 412.26500375 -4807.42527349 410.52178874 C-4760.15002862 406.48051187 -4712.87491906 402.43765358 -4665.59984633 398.39436348 C-4661.52613417 398.04595189 -4657.45242186 397.69754207 -4653.37870954 397.34913228 C-4635.85007444 395.84997185 -4618.32143986 394.35080521 -4600.7928071 392.8516174 C-4579.72288239 391.04955234 -4558.65295356 389.24753553 -4537.58301544 387.44562721 C-4432.65282202 378.47195687 -4327.72283771 369.49584949 -4157.65234375 354.9375 C-4156.11439341 354.80583956 -4156.11439341 354.80583956 -4154.54537337 354.67151931 C-4101.48869998 350.12945703 -4048.43205411 345.58707335 -3995.37542057 341.04454565 C-3965.85402475 338.51702539 -3936.33262349 335.98956861 -3906.81121826 333.4621582 C-3905.23417679 333.32714321 -3905.23417679 333.32714321 -3903.62527589 333.18940064 C-3891.92891531 332.18804203 -3880.23255461 331.18668486 -3868.53619385 330.18532848 C-3848.3124074 328.45391657 -3828.08862149 326.72249843 -3807.86483575 324.9910784 C-3804.6709996 324.71764435 -3801.47716344 324.44421039 -3798.28332728 324.17077643 C-3768.50275785 321.62117148 -3738.72219088 319.0715379 -3708.94162554 316.52188522 C-3606.31412085 307.73546827 -3503.68657948 298.94948001 -3358.71945566 286.53979129 C-3355.69921522 286.2812497 -3352.67897478 286.02270803 -3349.65873435 285.76416636 C-3300.52833423 281.55845661 -3251.39793101 277.3527831 -3202.26752629 273.14712705 C-3173.29973887 270.66742932 -3144.33195222 268.18772262 -3115.36416626 265.70800781 C-3113.88110488 265.58105406 -3113.88110488 265.58105406 -3112.36808265 265.45153558 C-3100.38638899 264.4258727 -3088.40469536 263.40020945 -3076.42300175 262.37454602 C-3058.45847027 260.83673647 -3040.49393874 259.29892748 -3022.52940721 257.76111853 C-3019.53610295 257.50488417 -3016.54279869 257.2486498 -3013.54949444 256.99241543 C-2986.62989891 254.68803036 -2959.7103031 252.38364871 -2932.79070703 250.07926993 C-2833.42640795 241.57345936 -2734.06211552 233.06757104 -2607.3920894 222.22412106 C-2507.50081787 213.67303555 -2407.60954516 205.1219638 -1718.03369952 146.09387167 C-1665.87839713 141.62953233 -1613.72309812 137.16515361 -1561.56780231 132.70073748 C-1550.20396964 131.72801023 -1538.84013686 130.75528414 -1527.47630405 129.78255844 C-1526.53753903 129.70220167 -1525.598774 129.62184491 -1524.63156154 129.53905308 C-1508.48311202 128.15677197 -1492.33466244 126.77449144 -1476.18621283 125.3922113 C-1466.66944877 124.57759228 -1457.15268473 123.76297292 -1447.63592076 122.94835281 C-1420.81554952 120.65257115 -1393.99517768 118.35679636 -1367.17480469 116.06103516 C-1365.74119931 115.93832188 -1365.74119931 115.93832188 -1364.27863221 115.81312955 C-1295.52781406 109.92822131 -1226.77697084 104.04360606 -1158.02611627 98.15912329 C-1146.45846598 97.16903169 -1134.89081585 96.17893829 -1123.32316589 95.18884277 C-1122.27987716 95.09954587 -1121.23658843 95.01024897 -1120.16168489 94.91824609 C-1088.56041056 92.21343665 -1056.95914448 89.50853073 -1025.35788538 86.80354329 C-1020.10780725 86.35415013 -1014.85772903 85.90475808 -1009.60765082 85.4553659 C-1005.41158139 85.09619383 -1001.21551198 84.73702171 -997.01944256 84.37784958 C-995.98159058 84.28901228 -994.94373859 84.20017497 -993.87443655 84.10864563 C-983.40457797 83.21245416 -972.93471946 82.31626189 -962.46486142 81.42006418 C-916.02388445 77.44481573 -869.58288618 73.46981637 -823.14181519 69.4956665 C-776.49258123 65.50369973 -729.84337346 61.51142724 -683.19421918 57.51852956 C-680.28752885 57.26973433 -677.38083833 57.02094135 -674.47414777 56.77214885 C-585.85403701 49.18686433 -497.23441548 41.59595522 -372.78748536 30.90051824 C-352.32431803 29.14149027 -331.86109554 27.3831054 -311.39782495 25.62527907 C-307.75179412 25.31207674 -304.1057644 24.99886164 -300.45973468 24.68564647 C-299.0132673 24.56138679 -297.56679993 24.43712711 -296.12033255 24.31286742 C-293.96350976 24.12758406 -291.80668697 23.94230065 -289.64986419 23.7570172 C-287.50861345 23.57307165 -285.36736268 23.38912654 -283.22611189 23.20518172 C-282.17138263 23.11457482 -282.17138263 23.11457482 -281.0953457 23.02213748 C-276.87301251 22.65941826 -272.65067805 22.29671372 -268.42834274 21.93401915 C-259.48694906 21.16596003 -250.54556243 20.39781887 -241.60418701 19.62954712 C-240.59913696 19.54319024 -240.59913696 19.54319024 -239.57378286 19.45508878 C-217.81364024 17.58534798 -196.05382133 15.71186249 -174.29416855 13.83642928 C-153.84805894 12.07423769 -133.40166972 10.31532536 -112.95496351 8.56006926 C-101.12345084 7.54425523 -89.29219689 6.52553556 -77.46130885 5.50247176 C-69.68595116 4.83036745 -61.91028756 4.16188792 -54.13435738 3.4964398 C-49.7430836 3.12053289 -45.35196467 2.74301959 -40.96122384 2.36093366 C-36.98733003 2.01514444 -33.01305969 1.67408118 -29.03843904 1.33675215 C-27.61832326 1.21540028 -26.19835122 1.09235039 -24.77855282 0.96733996 C-22.84459627 0.79731005 -20.91002497 0.63431794 -18.97544193 0.47157097 C-17.37642838 0.33385711 -17.37642838 0.33385711 -15.74511153 0.19336116 C-10.50332709 -0.07727364 -5.24876626 0 0 0 Z " fill="#000000" transform="translate(5161,564)"/>
<path d="M0 0 C296.01 0 592.02 0 897 0 C897 291.72 897 583.44 897 884 C600.99 884 304.98 884 0 884 C0 592.28 0 300.56 0 0 Z " fill="#000000" transform="translate(5160,5792)"/>
</svg>
